# Blender v2.83.0 OBJ File: 'BOX.BLEND'
# www.blender.org
mtllib Box.mtl
o Cube
v 1.000000 1.998854 -1.000000
v 1.000000 -0.001146 -1.000000
v 1.000000 1.998854 1.000000
v 1.000000 -0.001146 1.000000
v -1.000000 1.998854 -1.000000
v -1.000000 -0.001146 -1.000000
v -1.000000 1.998854 1.000000
v -1.000000 -0.001146 1.000000
vt 0.016579 0.466143
vt 0.472803 0.466143
vt 0.472803 0.972733
vt 0.016579 0.972733
vt 0.019865 0.464087
vt 0.476371 0.464087
vt 0.476371 0.970678
vt 0.019865 0.970678
vt 0.016645 0.463172
vt 0.475711 0.463172
vt 0.475711 0.971178
vt 0.016645 0.971178
vt 0.016711 0.463310
vt 0.474356 0.463310
vt 0.474356 0.971317
vt 0.016711 0.971317
vt 0.523682 0.461386
vt 0.978835 0.460846
vt 0.978835 0.971731
vt 0.523682 0.971731
vt 0.016645 0.461825
vt 0.476421 0.461825
vt 0.476421 0.971956
vt 0.016645 0.971956
vn 0.0000 1.0000 0.0000
vn 0.0000 0.0000 1.0000
vn -1.0000 0.0000 0.0000
vn 0.0000 -1.0000 0.0000
vn 1.0000 0.0000 0.0000
vn 0.0000 0.0000 -1.0000
usemtl Material
s off
f 1/1/1 5/2/1 7/3/1 3/4/1
f 4/5/2 3/6/2 7/7/2 8/8/2
f 8/9/3 7/10/3 5/11/3 6/12/3
f 6/13/4 2/14/4 4/15/4 8/16/4
f 2/17/5 1/18/5 3/19/5 4/20/5
f 6/21/6 5/22/6 1/23/6 2/24/6
o Куб
v -1.059582 1.692381 1.010987
v -1.059582 2.049873 1.010987
v -1.059582 1.692381 -1.010987
v -1.059582 2.049873 -1.010987
v 1.059582 1.692381 1.010987
v 1.059582 2.049873 1.010987
v 1.059582 1.692381 -1.010987
v 1.059582 2.049873 -1.010987
vt 0.042185 0.240494
vt 0.077775 0.240494
vt 0.077775 0.403960
vt 0.042185 0.403960
vt 0.042185 0.239855
vt 0.077775 0.239855
vt 0.077775 0.406153
vt 0.042185 0.406153
vt 0.040746 0.232663
vt 0.078757 0.232663
vt 0.078757 0.404074
vt 0.040746 0.404074
vt 0.043392 0.237161
vt 0.074956 0.237161
vt 0.074956 0.403459
vt 0.043392 0.403459
vt 0.018616 0.128898
vt 0.291118 0.128898
vt 0.291118 0.429350
vt 0.018616 0.429350
vt 0.020620 0.129635
vt 0.290951 0.129635
vt 0.290951 0.431509
vt 0.020620 0.431509
vn -1.0000 0.0000 0.0000
vn 0.0000 0.0000 -1.0000
vn 1.0000 0.0000 0.0000
vn 0.0000 0.0000 1.0000
vn 0.0000 -1.0000 0.0000
vn 0.0000 1.0000 0.0000
usemtl Материал
s off
f 9/25/7 10/26/7 12/27/7 11/28/7
f 11/29/8 12/30/8 16/31/8 15/32/8
f 15/33/9 16/34/9 14/35/9 13/36/9
f 13/37/10 14/38/10 10/39/10 9/40/10
f 11/41/11 15/42/11 13/43/11 9/44/11
f 16/45/12 12/46/12 10/47/12 14/48/12
